<svg xmlns="http://www.w3.org/2000/svg" viewBox="0 0 752.11 738.92"><defs><style>.cls-1{fill:transparent;}.cls-2,.cls-4,.cls-7{fill:#fff;}.cls-3{fill:#56cad8;}.cls-4,.cls-7{stroke:#56cad8;stroke-miterlimit:10;stroke-width:2px;}.cls-5{fill:#fed892;}.cls-6{fill:#fd8369;}.cls-7{stroke-linecap:round;}.cls-8{fill:#d37c59;}</style></defs><title>travel-tickets-colour</title><g id="Layer_2" data-name="Layer 2"><g id="Layer_1-2" data-name="Layer 1"><path d="M471.89,286.44,524.28,292l199.94,21.32.46.05.66.11c13.85,2.21,23.27,17.26,21.46,34.26L709.92,693.57a35.73,35.73,0,0,1-9.25,20.8c-5,5.29-11.32,8.2-17.78,8.2l-1.17,0-.47,0-.66-.07L480.66,701.13l-52.39-5.58,43.62-409.11m-1.51-1.87-44,412.49,54.09,5.76,199.93,21.32,1.21.13v0l1.26,0c14.27,0,26.87-13.11,28.72-30.52l36.88-345.81c1.91-17.92-8.26-33.79-22.88-36.12v0l-1.21-.13L524.46,290.33l-54.08-5.76Z"/><path class="cls-1" d="M566.23,108.47c29.64,43.66,26.13,107.84,53.31,179,27,71.19,84.69,149.05,83.47,232.69-1,83.47-61,172.38-140.29,195.52-79.08,23.15-177.46-19.81-257.77-68C224.46,599.29,162,545.63,105.05,475,48.06,404.47-3.5,317.14.19,229.81,4,142.66,63.31,55.34,141,20.27S314.77,2.2,394.38,22.2C473.82,42,536.6,64.81,566.23,108.47Z"/><path class="cls-2" d="M300.14,675.08a19.61,19.61,0,0,1-19.38-17L203.15,74a19.58,19.58,0,0,1,16.81-22L477.89,17.81a20.17,20.17,0,0,1,2.57-.17,19.62,19.62,0,0,1,19.39,17l77.6,584.06a19.6,19.6,0,0,1-16.8,22L302.71,674.91A20,20,0,0,1,300.14,675.08Z"/><path class="cls-3" d="M480.46,18.49A18.76,18.76,0,0,1,499,34.73L576.61,618.8a18.77,18.77,0,0,1-16.08,21L302.6,674.07a18.37,18.37,0,0,1-2.46.16A18.76,18.76,0,0,1,281.6,658L204,73.93a18.74,18.74,0,0,1,16.07-21L478,18.66a18.61,18.61,0,0,1,2.46-.17m0-1.7a20.33,20.33,0,0,0-2.68.18L219.85,51.24a20.46,20.46,0,0,0-17.54,22.91l77.61,584.07a20.46,20.46,0,0,0,20.22,17.71,20.22,20.22,0,0,0,2.68-.18l257.94-34.27a20.46,20.46,0,0,0,17.53-22.91L500.69,34.5a20.48,20.48,0,0,0-20.23-17.71Z"/><path class="cls-3" d="M537.36,644.59l23.4-3.11a20.46,20.46,0,0,0,17.53-22.91L500.69,34.5A20.46,20.46,0,0,0,477.78,17l-23.4,3.11Z"/><line class="cls-4" x1="499.29" y1="228.98" x2="227.68" y2="265.07"/><circle class="cls-5" cx="345" cy="142.05" r="70"/><rect class="cls-6" x="314.53" y="140.98" width="71.66" height="10.35" transform="translate(160.98 -182.86) rotate(37.43)"/><polygon class="cls-6" points="386.01 173.44 382.04 163.89 375.75 172.1 386.01 173.44"/><polygon class="cls-6" points="363.9 150 364.57 109.06 357.39 103.56 346.11 136.39 363.9 150"/><polygon class="cls-6" points="326.93 128.22 327.21 111.55 324.28 109.31 319.69 122.68 326.93 128.22"/><polygon class="cls-6" points="357.61 158.22 318.26 169.56 311.08 164.06 339.82 144.6 357.61 158.22"/><polygon class="cls-6" points="326.93 128.22 310.91 132.84 307.99 130.6 319.69 122.68 326.93 128.22"/><rect class="cls-6" x="297.68" y="417.65" width="316.19" height="19.61" transform="matrix(0.13, 0.99, -0.99, 0.13, 819.48, -80.65)"/><rect class="cls-6" x="305.7" y="365.17" width="198.79" height="19.61" transform="translate(723.45 -75.98) rotate(82.43)"/><line class="cls-7" x1="336.06" y1="269.43" x2="386.21" y2="646.83"/><rect x="285.17" y="276.07" width="5.89" height="34.3" transform="translate(540.83 -31) rotate(82.43)"/><rect x="293.32" y="337.4" width="5.89" height="34.3" transform="translate(608.7 14.17) rotate(82.43)"/><rect x="297.87" y="371.64" width="5.89" height="34.3" transform="translate(646.59 39.39) rotate(82.43)"/><rect x="304.67" y="422.88" width="5.89" height="34.3" transform="translate(703.29 77.13) rotate(82.43)"/><rect x="282.6" y="299.51" width="17.25" height="34.3" transform="translate(566.77 -13.74) rotate(82.43)"/><rect x="289.45" y="351.04" width="17.25" height="34.3" transform="translate(623.79 24.22) rotate(82.43)"/><rect x="296.89" y="407" width="17.25" height="34.3" transform="translate(685.72 65.44) rotate(82.43)"/><rect x="306.46" y="446.57" width="8.62" height="34.3" transform="translate(729.51 94.58) rotate(82.43)"/><rect x="288.24" y="285.64" width="2.28" height="34.3" transform="translate(551.42 -23.96) rotate(82.43)"/><rect x="311.96" y="477.71" width="5.89" height="34.3" transform="translate(763.97 117.52) rotate(82.43)"/><rect x="309.13" y="499.17" width="17.25" height="34.3" transform="translate(787.72 133.32) rotate(82.43)"/><rect x="314.77" y="485.29" width="2.28" height="34.3" transform="translate(772.37 123.1) rotate(82.43)"/><rect x="307.33" y="429.29" width="2.28" height="34.3" transform="translate(710.39 81.85) rotate(82.43)"/><rect x="308.6" y="438.82" width="2.28" height="34.3" transform="matrix(0.13, 0.99, -0.99, 0.13, 720.94, 88.88)"/><path class="cls-2" d="M145.12,738.07a23.55,23.55,0,0,1-22.66-17.31l-87.86-321A23.5,23.5,0,0,1,51.07,370.9l39-10.67A51.57,51.57,0,0,0,189.53,333l39-10.67a23.48,23.48,0,0,1,28.88,16.47l87.86,321a23.53,23.53,0,0,1-16.47,28.88l-39,10.67a51.57,51.57,0,0,0-99.47,27.23l-39,10.67A23.48,23.48,0,0,1,145.12,738.07Z"/><path class="cls-8" d="M234.73,322.34A22.71,22.71,0,0,1,256.57,339l87.86,321a22.65,22.65,0,0,1-15.87,27.83L290.37,698.3A52.42,52.42,0,0,0,189.3,726l-38.18,10.45a22.64,22.64,0,0,1-27.84-15.87l-87.86-321a22.68,22.68,0,0,1,15.87-27.83l38.17-10.45a52.42,52.42,0,0,0,101.1-27.67l38.17-10.45a22.65,22.65,0,0,1,6-.81m0-1.7a24.42,24.42,0,0,0-6.45.87L188.47,332.4c.05.17.11.34.15.5a50.72,50.72,0,1,1-97.84,26.79c0-.17-.08-.34-.13-.51l-39.81,10.9A24.36,24.36,0,0,0,33.78,400l87.86,321a24.33,24.33,0,0,0,29.92,17.06l39.8-10.89a50.72,50.72,0,1,1,97.85-26.78l39.8-10.9a24.36,24.36,0,0,0,17.06-29.92l-87.86-321a24.37,24.37,0,0,0-23.48-17.93Z"/><rect x="139.84" y="539.93" width="3.8" height="101.17" transform="translate(-150.87 58.37) rotate(-15.31)"/><rect x="177.11" y="529.73" width="3.8" height="101.17" transform="translate(-146.86 67.85) rotate(-15.31)"/><rect x="194.25" y="525.03" width="3.8" height="101.17" transform="matrix(0.96, -0.26, 0.26, 0.96, -145.01, 72.21)"/><rect x="225.18" y="516.57" width="3.8" height="101.17" transform="translate(-141.68 80.07) rotate(-15.31)"/><rect x="149.65" y="536.24" width="11.13" height="101.17" transform="translate(-149.42 61.8) rotate(-15.31)"/><rect x="182.01" y="527.38" width="11.13" height="101.17" transform="translate(-145.93 70.03) rotate(-15.31)"/><rect x="212.79" y="518.96" width="11.13" height="101.17" transform="translate(-142.62 77.86) rotate(-15.31)"/><rect x="236.06" y="513.35" width="5.56" height="101.17" transform="translate(-140.41 83.07) rotate(-15.31)"/><rect x="145.77" y="538.62" width="1.47" height="101.17" transform="matrix(0.96, -0.26, 0.26, 0.96, -150.36, 59.58)"/><rect x="256.5" y="507.99" width="3.8" height="101.17" transform="matrix(0.96, -0.26, 0.26, 0.96, -138.3, 88.04)"/><rect x="266.31" y="504.31" width="11.13" height="101.17" transform="translate(-136.85 91.46) rotate(-15.31)"/><rect x="262.43" y="506.69" width="1.47" height="101.17" transform="translate(-137.79 89.25) rotate(-15.31)"/><rect x="230.37" y="515.47" width="1.47" height="101.17" transform="translate(-141.24 81.1) rotate(-15.31)"/><rect x="233.25" y="514.68" width="1.47" height="101.17" transform="matrix(0.96, -0.26, 0.26, 0.96, -140.93, 81.83)"/><rect class="cls-3" x="78.72" y="457.38" width="91.71" height="19.68" transform="translate(-118.93 49.47) rotate(-15.31)"/><rect class="cls-3" x="85.31" y="489.46" width="45.86" height="9.84" transform="translate(-126.68 46.12) rotate(-15.31)"/><circle class="cls-6" cx="235.95" cy="443.25" r="25.13"/><rect class="cls-6" x="531.59" y="253.87" width="201.27" height="251.62" transform="translate(70.76 -98.47) rotate(9.43)"/><path class="cls-2" d="M664.72,721.48c-.41,0-.81,0-1.22,0l-.7,0-253.64-27L453,283.56l254,27.09.36.07c14.29,2.28,24,17.74,22.17,35.2l-36.88,345.8c-1.78,16.69-14,29.76-27.87,29.76Z"/><path d="M453.72,284.5l52.39,5.58L706,311.41l.46,0,.67.11c13.84,2.21,23.27,17.26,21.46,34.27l-36.88,345.8a35.79,35.79,0,0,1-9.25,20.8c-5,5.29-11.32,8.2-17.78,8.2-.39,0-.79,0-1.17,0h-.47l-.66-.07L462.48,699.19l-52.39-5.58L453.72,284.5m-1.51-1.87-44,412.49,54.08,5.77,199.94,21.32,1.21.13v0l1.27,0c14.27,0,26.86-13.11,28.72-30.52L730.32,346c1.91-17.93-8.26-33.79-22.89-36.13v0l-1.22-.13L506.29,288.39l-54.08-5.76Z"/><polygon class="cls-6" points="579.34 420.02 482.18 553.32 646.21 570.81 579.34 420.02"/><rect class="cls-3" x="504.3" y="371.79" width="158.67" height="28.1" transform="translate(44.2 -59.71) rotate(6.09)"/><circle class="cls-5" cx="569.74" cy="516.15" r="74.49"/></g></g></svg>